<svg width="70" height="72" viewBox="0 0 70 72" fill="none" xmlns="http://www.w3.org/2000/svg">
<path d="M39.8706 0.00140661C40.9508 0.337587 43.9841 3.41385 43.9238 4.41395C43.8818 5.10038 43.0033 5.54627 42.3897 5.26354C41.811 4.99629 40.0611 2.1282 39.3788 2.13242C33.7031 6.64906 33.081 15.5557 38.3322 20.6378V9.61701C38.3322 8.98263 39.2639 8.49734 39.8678 8.77726C39.9406 8.81102 40.4296 9.2963 40.4296 9.33569V20.6364L41.4061 19.7207C43.425 17.0566 44.2783 14.0914 44.0709 10.7339C44.0107 9.75626 43.1476 7.74762 44.7294 7.60696C45.8965 7.50287 46.1067 9.73798 46.1683 10.5932C46.5298 15.6218 44.4828 20.5295 40.4534 23.5368C40.2503 24.7887 40.6496 26.5371 40.4268 27.7215C40.239 28.723 38.5802 28.7568 38.3658 27.5527C38.2341 26.8072 38.4723 23.5805 38.3098 23.3259C38.2888 23.2921 37.8727 23.1711 37.7017 23.0248C30.5493 16.923 31.0061 5.1693 38.8912 0H39.8706V0.00140661Z" fill="#D05A69"/>
<path d="M24.0793 61.6448C24.4548 62.5253 24.5066 63.4044 23.9308 64.2287C21.5238 66.2177 19.2807 69.4641 16.8653 71.3138C15.7262 72.1859 14.8617 72.0551 13.7899 71.1802C9.27573 67.5005 5.20986 61.9078 0.715265 58.0551C-0.140782 56.9748 -0.280887 56.1027 0.582164 54.9662C1.64136 53.5708 6.11494 49.0809 7.50339 48.0175C8.47152 47.2762 9.49849 47.1904 10.4624 47.9964L17.4957 41.3445C19.7122 39.5399 22.8015 38.1262 25.6793 37.9082C32.1326 37.4187 39.2317 38.2176 45.7495 37.9701C49.5828 38.8998 50.408 44.2281 46.8661 46.1242C44.4773 47.4028 39.9099 45.9779 37.3992 46.7276C36.2741 47.0638 36.389 48.5914 37.416 48.725L48.057 48.5844L61.1219 36.4312C63.0301 34.8164 65.6445 34.6308 67.7923 35.915C69.3237 36.8293 70.1629 38.3822 69.0126 40.0026C63.7236 45.6502 58.9656 52.1276 53.6458 57.7048C52.3036 59.1115 51.1772 59.8035 49.1751 59.954C42.3225 60.4702 34.8366 59.556 27.9182 59.9498C26.4513 60.1524 25.2772 60.8374 24.0807 61.6462L24.0793 61.6448ZM46.394 43.8933C47.6423 42.5725 46.9628 40.4738 45.2451 40.0209C38.9557 40.3458 32.1858 39.5567 25.9525 40.0068C23.4909 40.1841 20.7154 41.3825 18.8309 42.965L12.1759 49.3439C11.8425 49.7898 12.7742 50.2343 13.0236 50.6099C13.7045 51.6381 12.7139 52.6593 11.5721 52.0671C11.0509 51.7971 9.24771 49.5099 8.91706 49.5676L2.12613 56.4867L15.4502 69.7623L22.2411 62.8432L14.5535 55.1111C14.0842 54.2882 14.6152 53.2853 15.5763 53.3697L22.5998 60.2016C24.0191 58.9806 25.8797 58.0129 27.7767 57.8427C34.5522 57.2364 42.2202 58.3842 49.0335 57.8455C49.9947 57.7696 50.7891 57.4573 51.5414 56.8538C56.3919 51.0403 61.6907 45.5686 66.5089 39.7326C67.2613 38.8211 67.9324 38.4821 66.6238 37.648C65.5842 36.984 63.9744 37.0192 62.9531 37.707L49.3081 50.2596L48.298 50.7899L37.0153 50.8096C33.8811 50.2301 33.6555 45.6474 36.651 44.7134C38.8296 44.034 42.6938 44.7668 45.112 44.5052C45.5645 44.456 46.0787 44.2253 46.3911 43.8947L46.394 43.8933Z" fill="#D05A69"/>
<path d="M62.0732 12.1151C63.2234 12.004 65.7748 11.8535 66.6476 12.6342C67.8189 13.6821 67.3608 17.238 67.0707 18.677C65.6122 25.9154 58.3506 31.2071 51.002 30.0762C50.0899 30.6613 48.4017 33.1778 47.3551 33.1426C46.8675 33.1271 46.3407 32.722 46.3057 32.21C46.2342 31.155 48.7827 29.4643 49.3558 28.5359C48.2027 20.711 54.223 12.8719 62.0732 12.1137V12.1151ZM65.1793 14.1801H62.1726C61.856 14.1801 60.5362 14.5486 60.1439 14.6696C55.1505 16.2154 51.2052 21.2159 51.4055 26.5329L59.0357 18.8922C60.4129 17.871 61.545 19.4872 60.3555 20.6392L53.0139 28.0085C60.1817 28.3109 66.1853 21.2539 65.1779 14.1801H65.1793Z" fill="#D05A69"/>
<path d="M13.5462 12.1081C21.7312 10.7324 29.4258 17.9877 29.8013 26.0448C29.8321 26.6989 29.5757 28.3024 29.6906 28.6822C29.8559 29.2322 32.1074 30.8836 32.5179 31.6023C33.1064 32.632 32.0374 33.5139 31.009 32.9752C30.3659 32.6376 28.4394 30.1549 28.0387 30.079C20.3343 31.2268 12.9241 25.575 11.7837 17.8836C11.5077 16.0199 11.0649 12.5273 13.5462 12.1095V12.1081ZM16.7294 14.18C15.8397 14.0942 14.838 14.2433 13.9329 14.18L13.7227 14.391V16.778C13.7227 17.1691 14.0338 18.4139 14.1529 18.8739C15.5105 24.136 20.5697 28.1815 26.0282 28.0788L18.5452 20.5028C17.6541 19.6236 18.5101 18.0918 19.6492 18.6939L27.2864 26.3275L27.7067 26.5371C27.603 21.531 24.4758 16.8315 19.8103 15.0226C18.9879 14.7033 17.584 14.2658 16.7308 14.1828L16.7294 14.18Z" fill="#D05A69"/>
</svg>
